<mxfile host="app.diagrams.net" agent="Mozilla/5.0 (X11; Ubuntu; Linux x86_64; rv:131.0) Gecko/20100101 Firefox/131.0" version="24.8.3">
  <diagram name="Page-1" id="5f0bae14-7c28-e335-631c-24af17079c00">
    <mxGraphModel dx="1434" dy="736" grid="1" gridSize="10" guides="1" tooltips="1" connect="1" arrows="1" fold="1" page="1" pageScale="1" pageWidth="1100" pageHeight="850" background="none" math="0" shadow="0">
      <root>
        <mxCell id="0" />
        <mxCell id="1" parent="0" />
        <mxCell id="R_Hcv6suj7CvRW2EH-fk-4" value="«Component»&lt;br&gt;&lt;b&gt;Web UI&lt;/b&gt;" style="html=1;dropTarget=0;whiteSpace=wrap;" vertex="1" parent="1">
          <mxGeometry x="100" y="20" width="120" height="50" as="geometry" />
        </mxCell>
        <mxCell id="R_Hcv6suj7CvRW2EH-fk-5" value="" style="shape=module;jettyWidth=8;jettyHeight=4;" vertex="1" parent="R_Hcv6suj7CvRW2EH-fk-4">
          <mxGeometry x="1" width="20" height="20" relative="1" as="geometry">
            <mxPoint x="-27" y="7" as="offset" />
          </mxGeometry>
        </mxCell>
        <mxCell id="R_Hcv6suj7CvRW2EH-fk-6" value="«Component»&lt;br&gt;&lt;b&gt;Mobile UI&lt;/b&gt;" style="html=1;dropTarget=0;whiteSpace=wrap;" vertex="1" parent="1">
          <mxGeometry x="270" y="20" width="110" height="50" as="geometry" />
        </mxCell>
        <mxCell id="R_Hcv6suj7CvRW2EH-fk-7" value="" style="shape=module;jettyWidth=8;jettyHeight=4;" vertex="1" parent="R_Hcv6suj7CvRW2EH-fk-6">
          <mxGeometry x="1" width="20" height="20" relative="1" as="geometry">
            <mxPoint x="-27" y="7" as="offset" />
          </mxGeometry>
        </mxCell>
        <mxCell id="R_Hcv6suj7CvRW2EH-fk-8" value="&lt;div&gt;«Component»&lt;/div&gt;&lt;div&gt;&lt;b&gt;partner app&lt;/b&gt;&lt;br&gt;&lt;/div&gt;" style="html=1;dropTarget=0;whiteSpace=wrap;" vertex="1" parent="1">
          <mxGeometry x="430" y="20" width="110" height="50" as="geometry" />
        </mxCell>
        <mxCell id="R_Hcv6suj7CvRW2EH-fk-9" value="" style="shape=module;jettyWidth=8;jettyHeight=4;" vertex="1" parent="R_Hcv6suj7CvRW2EH-fk-8">
          <mxGeometry x="1" width="20" height="20" relative="1" as="geometry">
            <mxPoint x="-27" y="7" as="offset" />
          </mxGeometry>
        </mxCell>
        <mxCell id="R_Hcv6suj7CvRW2EH-fk-10" value="&lt;div&gt;«Component»&lt;b&gt;&lt;br&gt;&lt;/b&gt;&lt;/div&gt;&lt;div&gt;&lt;b&gt;API gateway&lt;/b&gt;&lt;/div&gt;" style="html=1;dropTarget=0;whiteSpace=wrap;" vertex="1" parent="1">
          <mxGeometry x="340" y="190" width="180" height="90" as="geometry" />
        </mxCell>
        <mxCell id="R_Hcv6suj7CvRW2EH-fk-11" value="" style="shape=module;jettyWidth=8;jettyHeight=4;" vertex="1" parent="R_Hcv6suj7CvRW2EH-fk-10">
          <mxGeometry x="1" width="20" height="20" relative="1" as="geometry">
            <mxPoint x="-27" y="7" as="offset" />
          </mxGeometry>
        </mxCell>
        <mxCell id="R_Hcv6suj7CvRW2EH-fk-24" value="Uses" style="endArrow=open;endSize=12;dashed=1;html=1;rounded=0;exitX=0.367;exitY=1.044;exitDx=0;exitDy=0;exitPerimeter=0;entryX=0.75;entryY=0;entryDx=0;entryDy=0;" edge="1" parent="1" source="R_Hcv6suj7CvRW2EH-fk-8" target="R_Hcv6suj7CvRW2EH-fk-10">
          <mxGeometry x="-0.0369" width="160" relative="1" as="geometry">
            <mxPoint x="590" y="140" as="sourcePoint" />
            <mxPoint x="530" y="230" as="targetPoint" />
            <mxPoint as="offset" />
          </mxGeometry>
        </mxCell>
        <mxCell id="R_Hcv6suj7CvRW2EH-fk-26" value="Uses" style="endArrow=open;endSize=12;dashed=1;html=1;rounded=0;entryX=0.006;entryY=0.6;entryDx=0;entryDy=0;entryPerimeter=0;" edge="1" parent="1" target="R_Hcv6suj7CvRW2EH-fk-10">
          <mxGeometry x="-0.0369" width="160" relative="1" as="geometry">
            <mxPoint x="160" y="80" as="sourcePoint" />
            <mxPoint x="142" y="226" as="targetPoint" />
            <mxPoint as="offset" />
          </mxGeometry>
        </mxCell>
        <mxCell id="R_Hcv6suj7CvRW2EH-fk-27" value="Uses" style="endArrow=open;endSize=12;dashed=1;html=1;rounded=0;exitX=0.5;exitY=1;exitDx=0;exitDy=0;entryX=0.378;entryY=0.011;entryDx=0;entryDy=0;entryPerimeter=0;" edge="1" parent="1" source="R_Hcv6suj7CvRW2EH-fk-6" target="R_Hcv6suj7CvRW2EH-fk-10">
          <mxGeometry x="-0.0369" width="160" relative="1" as="geometry">
            <mxPoint x="378.5" y="110" as="sourcePoint" />
            <mxPoint x="481.5" y="244" as="targetPoint" />
            <mxPoint as="offset" />
          </mxGeometry>
        </mxCell>
        <mxCell id="R_Hcv6suj7CvRW2EH-fk-28" value="«Annotation»&lt;br&gt;&lt;b&gt;UserService&lt;/b&gt;" style="html=1;dropTarget=0;whiteSpace=wrap;" vertex="1" parent="1">
          <mxGeometry x="50" y="340" width="130" height="70" as="geometry" />
        </mxCell>
        <mxCell id="R_Hcv6suj7CvRW2EH-fk-29" value="" style="shape=module;jettyWidth=8;jettyHeight=4;" vertex="1" parent="R_Hcv6suj7CvRW2EH-fk-28">
          <mxGeometry x="1" width="20" height="20" relative="1" as="geometry">
            <mxPoint x="-27" y="7" as="offset" />
          </mxGeometry>
        </mxCell>
        <mxCell id="R_Hcv6suj7CvRW2EH-fk-30" value="«Annotation»&lt;br&gt;&lt;b&gt;RestaurentService&lt;span style=&quot;white-space: pre;&quot;&gt;&#x9;&lt;/span&gt;&lt;/b&gt;" style="html=1;dropTarget=0;whiteSpace=wrap;" vertex="1" parent="1">
          <mxGeometry x="220" y="340" width="130" height="70" as="geometry" />
        </mxCell>
        <mxCell id="R_Hcv6suj7CvRW2EH-fk-31" value="" style="shape=module;jettyWidth=8;jettyHeight=4;" vertex="1" parent="R_Hcv6suj7CvRW2EH-fk-30">
          <mxGeometry x="1" width="29" height="20" relative="1" as="geometry">
            <mxPoint x="-27" y="7" as="offset" />
          </mxGeometry>
        </mxCell>
        <mxCell id="R_Hcv6suj7CvRW2EH-fk-32" value="«Annotation»&lt;br&gt;&lt;div&gt;&lt;b&gt;OrderManagement&lt;/b&gt;&lt;/div&gt;&lt;div&gt;&lt;b&gt;Servcie&lt;/b&gt;&lt;/div&gt;" style="html=1;dropTarget=0;whiteSpace=wrap;" vertex="1" parent="1">
          <mxGeometry x="375" y="340" width="125" height="70" as="geometry" />
        </mxCell>
        <mxCell id="R_Hcv6suj7CvRW2EH-fk-33" value="" style="shape=module;jettyWidth=8;jettyHeight=4;" vertex="1" parent="R_Hcv6suj7CvRW2EH-fk-32">
          <mxGeometry x="1" width="20" height="20" relative="1" as="geometry">
            <mxPoint x="-27" y="7" as="offset" />
          </mxGeometry>
        </mxCell>
        <mxCell id="R_Hcv6suj7CvRW2EH-fk-34" value="«Annotation»&lt;br&gt;&lt;b&gt;Search and RecommendationService&lt;/b&gt;" style="html=1;dropTarget=0;whiteSpace=wrap;" vertex="1" parent="1">
          <mxGeometry x="520" y="340" width="150" height="70" as="geometry" />
        </mxCell>
        <mxCell id="R_Hcv6suj7CvRW2EH-fk-35" value="" style="shape=module;jettyWidth=8;jettyHeight=4;" vertex="1" parent="R_Hcv6suj7CvRW2EH-fk-34">
          <mxGeometry x="1" width="20" height="20" relative="1" as="geometry">
            <mxPoint x="-27" y="7" as="offset" />
          </mxGeometry>
        </mxCell>
        <mxCell id="R_Hcv6suj7CvRW2EH-fk-36" value="«Annotation»&lt;br&gt;&lt;b&gt;DeliveryService&lt;/b&gt;" style="html=1;dropTarget=0;whiteSpace=wrap;" vertex="1" parent="1">
          <mxGeometry x="720" y="340" width="120" height="70" as="geometry" />
        </mxCell>
        <mxCell id="R_Hcv6suj7CvRW2EH-fk-37" value="" style="shape=module;jettyWidth=8;jettyHeight=4;" vertex="1" parent="R_Hcv6suj7CvRW2EH-fk-36">
          <mxGeometry x="1" width="20" height="20" relative="1" as="geometry">
            <mxPoint x="-27" y="7" as="offset" />
          </mxGeometry>
        </mxCell>
        <mxCell id="R_Hcv6suj7CvRW2EH-fk-38" value="&lt;div&gt;&lt;b&gt;«&lt;/b&gt;Annotation&lt;b&gt;»&lt;/b&gt;&lt;/div&gt;&lt;b&gt;NotificationService&lt;/b&gt;" style="html=1;dropTarget=0;whiteSpace=wrap;" vertex="1" parent="1">
          <mxGeometry x="870" y="340" width="120" height="70" as="geometry" />
        </mxCell>
        <mxCell id="R_Hcv6suj7CvRW2EH-fk-39" value="" style="shape=module;jettyWidth=8;jettyHeight=4;" vertex="1" parent="R_Hcv6suj7CvRW2EH-fk-38">
          <mxGeometry x="1" width="20" height="20" relative="1" as="geometry">
            <mxPoint x="-27" y="7" as="offset" />
          </mxGeometry>
        </mxCell>
        <mxCell id="R_Hcv6suj7CvRW2EH-fk-43" value="«Database_layer»&lt;b&gt;Database&lt;/b&gt;&lt;br&gt;&lt;b&gt;&lt;/b&gt;" style="html=1;dropTarget=0;whiteSpace=wrap;" vertex="1" parent="1">
          <mxGeometry x="180" y="480" width="180" height="90" as="geometry" />
        </mxCell>
        <mxCell id="R_Hcv6suj7CvRW2EH-fk-44" value="" style="shape=module;jettyWidth=8;jettyHeight=4;" vertex="1" parent="R_Hcv6suj7CvRW2EH-fk-43">
          <mxGeometry x="1" width="20" height="20" relative="1" as="geometry">
            <mxPoint x="-27" y="7" as="offset" />
          </mxGeometry>
        </mxCell>
      </root>
    </mxGraphModel>
  </diagram>
</mxfile>
